<svg xmlns="http://www.w3.org/2000/svg" xmlns:xlink="http://www.w3.org/1999/xlink" width="24" height="24" viewBox="0 0 24 24">
    <defs>
        <path id="a" d="M21.414 11.333v-.514c0-1.3-.81-2.406-1.94-2.83V5.864C19.474 4.285 18.216 3 16.67 3H5.183C3.66 3 2.43 4.218 2.381 5.773l-.002.015v8.41c0 .277.22.502.492.502a.497.497 0 0 0 .491-.502V8.03c.524.48 1.213.776 1.97.776h13.129c.107 0 .212.012.316.029.063.03.132.048.206.048l.006-.001a2.007 2.007 0 0 1 1.441 1.937v.488h-3.626c-.738 0-1.339.613-1.339 1.368v2.287c0 .754.6 1.368 1.34 1.368h3.639a.49.49 0 0 0-.014.112v1.54c0 1.11-.883 2.012-1.97 2.012l-9.246.001a.497.497 0 0 0-.492.503c0 .277.22.502.492.502h9.247c1.629 0 2.953-1.354 2.953-3.017v-1.54a.524.524 0 0 0-.02-.135 1.362 1.362 0 0 0 1.106-1.346v-2.287c0-.666-.469-1.222-1.086-1.342zM5.332 7.802c-1.08 0-1.96-.894-1.969-1.996.032-1.01.831-1.8 1.82-1.8h11.488c1.004 0 1.82.834 1.82 1.86v1.938l-.03-.002H5.332zm16.184 7.16c0 .2-.159.363-.355.363h-4.356a.36.36 0 0 1-.355-.363v-2.287c0-.2.16-.363.355-.363h4.356a.36.36 0 0 1 .355.363v2.287zm-2.655-1.144c0 .989-1.452.989-1.452 0s1.452-.989 1.452 0m-2.347-8.379H5.339a.497.497 0 0 0-.492.502c0 .278.22.503.492.503h11.175a.497.497 0 0 0 .492-.503.497.497 0 0 0-.492-.502zM5.328 15.135a.484.484 0 0 0-.63 0L1.675 17.72a.51.51 0 0 0-.061.707c.174.213.484.24.692.063l.079-.067v2.075c0 .277.22.502.491.502h1.398a.497.497 0 0 0 .491-.502v-1.46h.486v1.46c0 .277.22.502.492.502h1.402a.497.497 0 0 0 .492-.502v-2.075l.078.067a.485.485 0 0 0 .693-.062.509.509 0 0 0-.062-.707l-3.019-2.586zm1.327 4.86h-.418v-1.46a.497.497 0 0 0-.492-.502h-1.47a.497.497 0 0 0-.492.502v1.46h-.414v-2.414l1.642-1.405 1.643 1.406.001 2.413z"/>
    </defs>
    <g fill="none" fill-rule="evenodd">
        <path d="M0 0h24v24H0z"/>
        <mask id="b" fill="#fff">
            <use xlink:href="#a"/>
        </mask>
        <use fill="#000" fill-rule="nonzero" xlink:href="#a"/>
        <g fill="#268BE2" mask="url(#b)">
            <path d="M0 0h24v24H0z"/>
        </g>
    </g>
</svg>
