<svg xmlns="http://www.w3.org/2000/svg" xmlns:xlink="http://www.w3.org/1999/xlink" width="24" height="24" viewBox="0 0 24 24">
    <defs>
        <path id="a" d="M2.766 21.987a.766.766 0 0 0 .255-.04l5.6-1.87a.465.465 0 0 0 .071-.032l.028-.015c.03-.02.06-.042.086-.068L21.01 7.77a3.382 3.382 0 0 0-4.782-4.78L4.038 15.176a.52.52 0 0 0-.07.086l-.014.028a.465.465 0 0 0-.033.071l-1.877 5.622A.764.764 0 0 0 2.766 22v-.013zM15.307 5.338l3.354 3.352-10.2 10.186-3.343-3.342 10.19-10.196zm1.63-1.629a2.369 2.369 0 0 1 3.353 3.343l-.915.909-3.338-3.337.9-.915zM4.629 16.474l2.891 2.89-4.35 1.448 1.46-4.338z"/>
    </defs>
    <g fill="none" fill-rule="evenodd">
        <path d="M0 0h24v24H0z"/>
        <mask id="b" fill="#fff">
            <use xlink:href="#a"/>
        </mask>
        <use fill="#000" fill-rule="nonzero" xlink:href="#a"/>
        <g fill="#268BE2" mask="url(#b)">
            <path d="M0 0h24v24H0z"/>
        </g>
    </g>
</svg>
