<svg xmlns="http://www.w3.org/2000/svg" xmlns:xlink="http://www.w3.org/1999/xlink" width="24" height="20" viewBox="0 0 24 20">
    <defs>
        <rect id="a" width="343" height="100" rx="8"/>
        <filter id="b" width="108.7%" height="130%" x="-4.4%" y="-11%" filterUnits="objectBoundingBox">
            <feOffset dy="3" in="SourceAlpha" result="shadowOffsetOuter1"/>
            <feGaussianBlur in="shadowOffsetOuter1" result="shadowBlurOuter1" stdDeviation="3.5"/>
            <feColorMatrix in="shadowBlurOuter1" result="shadowMatrixOuter1" values="0 0 0 0 0 0 0 0 0 0 0 0 0 0 0 0 0 0 0.2 0"/>
            <feOffset dy="1" in="SourceAlpha" result="shadowOffsetOuter2"/>
            <feGaussianBlur in="shadowOffsetOuter2" result="shadowBlurOuter2" stdDeviation="1.5"/>
            <feColorMatrix in="shadowBlurOuter2" result="shadowMatrixOuter2" values="0 0 0 0 0 0 0 0 0 0 0 0 0 0 0 0 0 0 0.226987092 0"/>
            <feMerge>
                <feMergeNode in="shadowMatrixOuter1"/>
                <feMergeNode in="shadowMatrixOuter2"/>
            </feMerge>
        </filter>
        <path id="d" d="M25.667 17.438c0-.947-.668-1.74-1.552-1.925a1.533 1.533 0 0 0-.236-1.483c.014-.005.028-.012.04-.018.373-.167.697-.311 1.24-.37a.486.486 0 0 0 .391-.279.495.495 0 0 0-.035-.482l-1.313-1.99c-.087-3.446-2.882-6.224-6.312-6.224h-7.778c-3.432 0-6.227 2.778-6.314 6.225l-1.313 1.99a.496.496 0 0 0-.035.481c.072.156.22.262.39.28.543.058.865.202 1.238.37l.042.017a1.533 1.533 0 0 0-.235 1.483 1.964 1.964 0 0 0-1.552 1.925c0 .912.621 1.674 1.457 1.895v1.543c0 1.355 1.09 2.457 2.432 2.457h15.556c1.341 0 2.432-1.102 2.432-2.457v-1.543a1.96 1.96 0 0 0 1.457-1.895zM10.11 5.65h7.777c2.784 0 5.075 2.161 5.323 4.91H4.789c.248-2.749 2.538-4.91 5.322-4.91zm-6.409 7.16l.836-1.266h18.923l.838 1.267c-.302.088-.547.198-.775.299-.471.212-.878.395-1.747.395-.869 0-1.277-.183-1.748-.395-.5-.224-1.067-.48-2.144-.48-1.074 0-1.641.256-2.142.48-.471.212-.878.395-1.747.395-.869 0-1.276-.183-1.746-.395-.5-.224-1.067-.48-2.142-.48s-1.641.256-2.142.48c-.471.212-.877.393-1.745.393-.87 0-1.275-.183-1.746-.394-.228-.099-.473-.21-.773-.298zm4.66 1.201c.47-.212.876-.394 1.745-.394.869 0 1.276.182 1.747.394.5.225 1.067.48 2.142.48 1.076 0 1.643-.255 2.142-.48.472-.212.877-.394 1.746-.394.87 0 1.277.182 1.749.394.5.225 1.066.48 2.143.48h1.072c.21 0 .387.225.387.49s-.176.491-.387.491l-8.85-.001a.484.484 0 0 0-.344.144l-2.573 2.598-2.57-2.597a.479.479 0 0 0-.158-.108.504.504 0 0 0-.171-.035l-.017-.002H5.152c-.211 0-.388-.225-.388-.492 0-.264.177-.49.388-.49h1.067c1.076.001 1.643-.253 2.142-.478zm-5.055 3.426c0-.542.436-.98.972-.98h3.685l1.942 1.963-5.627-.002a.978.978 0 0 1-.972-.981zm19.928 3.438c0 .812-.653 1.473-1.456 1.473H6.222c-.804 0-1.458-.66-1.458-1.473v-1.472h18.47l.001 1.472zm.486-2.457H12.259l1.943-1.963h9.52c.536 0 .972.439.972.98a.98.98 0 0 1-.973.983zM12.093 7.857a.48.48 0 0 0 .688 0 .496.496 0 0 0 0-.697l-.764-.771a.484.484 0 0 0-.689 0 .496.496 0 0 0 0 .696l.765.772zm7.778.983c.096.095.22.144.344.144.125 0 .25-.048.344-.144a.496.496 0 0 0 0-.697l-.763-.771a.484.484 0 0 0-.69 0 .498.498 0 0 0 0 .696l.765.772zm-4.308 1.127c.124 0 .25-.049.345-.146l.763-.77a.496.496 0 0 0 0-.697.484.484 0 0 0-.689 0l-.763.77a.498.498 0 0 0 0 .697c.094.097.22.146.344.146zm-7.778 0c.124 0 .249-.049.343-.146l.764-.77a.496.496 0 0 0 0-.697.484.484 0 0 0-.69 0l-.763.77a.496.496 0 0 0 .346.843z"/>
    </defs>
    <g fill="none" fill-rule="evenodd" transform="translate(-18 -20)">
        <mask id="c" fill="#fff">
            <use xlink:href="#a"/>
        </mask>
        <use fill="#000" filter="url(#b)" xlink:href="#a"/>
        <use fill="#FFF" xlink:href="#a"/>
        <g mask="url(#c)">
            <g transform="translate(16 16)">
                <path d="M0 0h28v28H0z"/>
                <mask id="e" fill="#fff">
                    <use xlink:href="#d"/>
                </mask>
                <use fill="#000" fill-rule="nonzero" xlink:href="#d"/>
                <g fill="#268BE2" mask="url(#e)">
                    <path d="M0 0h28v28H0z"/>
                </g>
            </g>
        </g>
    </g>
</svg>
