<svg xmlns="http://www.w3.org/2000/svg" xmlns:xlink="http://www.w3.org/1999/xlink" width="18" height="20" viewBox="0 0 18 20">
    <defs>
        <path id="a" d="M9.605 8.372c.056-.04.108-.086.161-.13.086.184.156.375.21.572.06.155.16.291.289.398.177.123.289-.09.305-.42a2.896 2.896 0 0 0-.162-1.09.648.648 0 0 0-.154-.263.705.705 0 0 0-.678-.178.72.72 0 0 0-.262.123l-.053.038c-.06.04-.122.079-.183.116-.123.077-.25.147-.382.21a2.67 2.67 0 0 1-.798.238A1.563 1.563 0 0 1 7 7.822a2.348 2.348 0 0 1-.746-.628 6.543 6.543 0 0 1-1.018-1.927c-.21-.616-.4-1.257-.563-1.907L5 3.295c.192-.042.382-.065.573-.098.192-.034.382-.067.573-.086.192-.019.38-.025.568-.027h.561a5.563 5.563 0 0 1 1.646.268l.093.032.084.04.169.077c.053.03.099.063.147.095l.074.045.064.055c.17.13.304.3.392.496a1.757 1.757 0 0 1 .122 1.07 7.66 7.66 0 0 0-.923-.325 2.8 2.8 0 0 0-.964-.122c-.253.025-.409.107-.421.255.03.273.453.54 1.102.793.29.113.57.243.843.39l.196.113.049.03h.012l.036.018a.718.718 0 0 0 .449.069.736.736 0 0 0 .56-.442c.041-.098.07-.18.102-.274.124-.374.175-.769.147-1.162a2.704 2.704 0 0 0-.362-1.154 2.605 2.605 0 0 0-.67-.73 4.615 4.615 0 0 0-.407-.254c-.141-.063-.282-.131-.421-.182A5.52 5.52 0 0 0 7.68 2a14.28 14.28 0 0 0-3.264.386l-.181.016h-.166l-.065.016-.001.001a.707.707 0 0 0-.49.814l.132.73v-.001c.095.483.22.96.37 1.429.31.943.724 1.898 1.495 2.725.414.447.954.76 1.549.9.608.123 1.24.05 1.802-.21.263-.118.512-.264.745-.434zm9.637-3.429a.83.83 0 0 1 .076.53v.1l-.02.076-.15.61a12.42 12.42 0 0 1-.897 2.387l-.151.29-.194.285c-.12.189-.25.372-.39.548-.301.374-.672.686-1.092.919a2.519 2.519 0 0 1-1.476.274 3.205 3.205 0 0 1-1.323-.511 3.282 3.282 0 0 1-.451-.352l-.05-.049-.026-.025v-.01a.04.04 0 0 0-.021-.019.065.065 0 0 0-.036 0 .047.047 0 0 0-.021 0l-.027.034-.032.046a3.93 3.93 0 0 0-.232.377 6.798 6.798 0 0 0-.559 1.506h.104a2.62 2.62 0 0 1 1.66.728c.208.187.346.438.39.712a.418.418 0 0 1-.157.42.387.387 0 0 1-.405-.061c-.14-.088-.29-.21-.456-.337a1.736 1.736 0 0 0-.99-.344 1.982 1.982 0 0 0-1.024.255 1.313 1.313 0 0 0-.59.736 1.355 1.355 0 0 0-.064.49c0 .152.035.302.101.439.102.186.246.347.422.469.227.123.467.222.716.294.128.04.263.073.4.104.137.032.325.078.487.127v-.001c.345.098.675.239.983.419.344.201.637.479.855.811.222.352.338.76.336 1.174.003.39-.088.777-.263 1.128a2.53 2.53 0 0 1-1.778 1.303l-.113.019c.059.262-.066.524-.15.786-.038.12-.186.235-.517.33v.001c-.127.035-.26.047-.391.034-.08 0-.192-.031-.188-.046.078-.344-.135-.692.234-1.033 0-.04-.02-.08-.03-.121v-.001a2.148 2.148 0 0 1-.54-.233 1.746 1.746 0 0 1-.832-1.178.523.523 0 0 1 .032-.317.172.172 0 0 1 .198-.09.622.622 0 0 1 .31.172c.293.455.81.717 1.353.684a1.54 1.54 0 0 0 1.318-.726 1.38 1.38 0 0 0 .132-.34c.026-.126.038-.253.034-.38a1.05 1.05 0 0 0-.23-.644 1.854 1.854 0 0 0-.289-.279 3.06 3.06 0 0 0-.381-.239 4.677 4.677 0 0 0-.445-.21c-.155-.066-.31-.119-.504-.192a4.545 4.545 0 0 1-1.264-.486 2.762 2.762 0 0 1-.58-.46 2.17 2.17 0 0 1-.421-.668 2.239 2.239 0 0 1-.144-.767c-.001-.255.034-.51.106-.754.079-.25.196-.485.347-.699a2.512 2.512 0 0 1 1.598-.974.61.61 0 0 1 0-.055v-.396c0-.138.022-.278.04-.419.039-.28.102-.556.19-.825.089-.273.204-.536.346-.786l.015-.026.03-.045h-.002a1.049 1.049 0 0 1 .226-.25 1.079 1.079 0 0 1 1.355-.004l.064.052.056.049.118.092h.001a2.555 2.555 0 0 0 .777.396c.327.1.679.08.992-.057.341-.18.637-.436.863-.748.265-.355.495-.735.685-1.133a17.1 17.1 0 0 0 .546-1.28c.078-.223.17-.439.245-.666l.116-.337.036-.102-.26-.042-.391-.063-.393-.061-.392-.045-.39-.022a7.943 7.943 0 0 0-.776-.02 5.83 5.83 0 0 0-1.475.185c-.428.094-.814.32-1.104.647a1.772 1.772 0 0 0-.323 1.449c0 .027.012.055.019.083v.001c.292-.13.592-.244.898-.337.75-.231 1.343-.121 1.408.132.068.135-.05.266-.249.392a5.863 5.863 0 0 1-.805.379 7.944 7.944 0 0 0-.8.379l-.186.107-.023.012a.846.846 0 0 1-1.185-.372l-.027-.063-.013-.034a2.967 2.967 0 0 1-.094-.272h-.001a2.992 2.992 0 0 1-.118-1.19c.04-.414.179-.815.403-1.168.232-.358.545-.657.915-.872a3.87 3.87 0 0 1 1.074-.42 7.306 7.306 0 0 1 2.098-.131c.423.03.845.082 1.265.155.421.036.843.113 1.252.18l.078.012h.026l.071.019c.043.014.087.03.128.05a.84.84 0 0 1 .37.401l.003-.002zm-2.036 9.884a.92.92 0 0 0-.046.33c0 .098.023.194.065.282.067.13.165.241.285.326.168.089.347.158.53.21.098.03.199.055.302.078.103.023.26.06.388.098.279.083.546.2.794.35.283.17.522.401.7.677.184.295.28.636.276.983a2.01 2.01 0 0 1-1.657 1.987c-.01.19-.066.374-.162.538-.038.093-.185.185-.516.258a1.314 1.314 0 0 1-.392.027.506.506 0 0 1-.188-.035c.078-.268-.135-.539.234-.805l-.01-.036a1.62 1.62 0 0 1-.367-.18 1.307 1.307 0 0 1-.607-.985c-.012-.21.084-.358.257-.348a.446.446 0 0 1 .268.095c.2.313.559.49.93.463.37.005.715-.183.91-.495a.96.96 0 0 0 .088-.226c.019-.085.027-.171.025-.258a.69.69 0 0 0-.139-.42 1.55 1.55 0 0 0-.474-.39 3.499 3.499 0 0 0-.33-.171c-.117-.055-.233-.098-.389-.164v.001a3.6 3.6 0 0 1-1.016-.392 2.242 2.242 0 0 1-.476-.375 1.793 1.793 0 0 1-.348-.552 1.882 1.882 0 0 1-.12-.629 2.17 2.17 0 0 1 .085-.628c.064-.207.161-.401.286-.578a2.111 2.111 0 0 1 1.405-.811l.028-.026a2.968 2.968 0 0 1-.13-.504.623.623 0 0 1 .11-.315c.03-.059.227-.098.495-.102.268-.004.44.042.478.098a.69.69 0 0 1 .064.6c0 .03-.023.063-.037.094a.5.5 0 0 1 .034.243c.302.103.577.273.803.496a.9.9 0 0 1 .293.595.382.382 0 0 1-.188.37.422.422 0 0 1-.378 0 2.306 2.306 0 0 1-.36-.21 1.257 1.257 0 0 0-.682-.24c-.25 0-.496.064-.715.187a.894.894 0 0 0-.406.49zm-10.46 5.32c-.01.188-.066.373-.161.538-.038.092-.186.184-.517.258a1.37 1.37 0 0 1-.392.027.51.51 0 0 1-.187-.036c.078-.269-.135-.539.234-.805l-.011-.036a1.69 1.69 0 0 1-.367-.18 1.31 1.31 0 0 1-.61-.983c-.013-.21.084-.358.256-.348a.446.446 0 0 1 .268.095c.2.312.557.49.93.463.368.005.713-.183.908-.495a.929.929 0 0 0 .114-.484.7.7 0 0 0-.139-.42 1.56 1.56 0 0 0-.474-.39 3.713 3.713 0 0 0-.331-.171c-.116-.055-.232-.098-.388-.164v.001a3.605 3.605 0 0 1-1.014-.392 2.242 2.242 0 0 1-.476-.375 1.793 1.793 0 0 1-.348-.552 1.882 1.882 0 0 1-.12-.629 2.17 2.17 0 0 1 .084-.628c.064-.207.161-.401.287-.578a2.14 2.14 0 0 1 .457-.45c.28-.199.606-.326.946-.37l.028-.025a3.027 3.027 0 0 1-.12-.505.628.628 0 0 1 .109-.315c.031-.059.227-.098.496-.102.267-.004.44.042.478.098.113.18.136.4.063.6 0 .03-.023.063-.036.094.031.077.043.16.034.243.302.104.576.273.803.497.17.154.275.367.294.595a.384.384 0 0 1-.188.37c-.12.059-.26.059-.38 0a2.298 2.298 0 0 1-.358-.21 1.258 1.258 0 0 0-.7-.223c-.25 0-.497.064-.714.187a.893.893 0 0 0-.396.49.93.93 0 0 0-.06.32.688.688 0 0 0 .065.282c.068.13.166.241.285.326.17.089.348.158.531.21.097.03.199.055.302.078.103.023.259.06.387.098.28.083.546.2.795.35.285.168.526.399.706.675.184.295.28.636.276.983a2.01 2.01 0 0 1-1.656 1.987h.008z"/>
    </defs>
    <g fill="none" fill-rule="evenodd" transform="translate(-3 -2)">
        <path d="M0 0h24v24H0z"/>
        <mask id="b" fill="#fff">
            <use xlink:href="#a"/>
        </mask>
        <use fill="#000" fill-rule="nonzero" xlink:href="#a"/>
        <g fill="#268BE2" mask="url(#b)">
            <path d="M0 0h24v24H0z"/>
        </g>
    </g>
</svg>
