<svg xmlns="http://www.w3.org/2000/svg" xmlns:xlink="http://www.w3.org/1999/xlink" width="106" height="124" viewBox="0 0 106 124">
    <defs>
        <linearGradient id="a" x1="0%" y1="0%" y2="100%">
            <stop offset="0%" stop-color="#008FFC"/>
            <stop offset="100%" stop-color="#1ADBC9"/>
        </linearGradient>
        <filter id="b" width="108.7%" height="116%" x="-4.4%" y="-5.9%" filterUnits="objectBoundingBox">
            <feOffset dy="3" in="SourceAlpha" result="shadowOffsetOuter1"/>
            <feGaussianBlur in="shadowOffsetOuter1" result="shadowBlurOuter1" stdDeviation="3.5"/>
            <feColorMatrix in="shadowBlurOuter1" result="shadowMatrixOuter1" values="0 0 0 0 0 0 0 0 0 0 0 0 0 0 0 0 0 0 0.2 0"/>
            <feOffset dy="1" in="SourceAlpha" result="shadowOffsetOuter2"/>
            <feGaussianBlur in="shadowOffsetOuter2" result="shadowBlurOuter2" stdDeviation="1.5"/>
            <feColorMatrix in="shadowBlurOuter2" result="shadowMatrixOuter2" values="0 0 0 0 0 0 0 0 0 0 0 0 0 0 0 0 0 0 0.226987 0"/>
            <feMerge>
                <feMergeNode in="shadowMatrixOuter1"/>
                <feMergeNode in="shadowMatrixOuter2"/>
                <feMergeNode in="SourceGraphic"/>
            </feMerge>
        </filter>
        <rect id="c" width="343" height="187" rx="8"/>
        <linearGradient id="d" x1="12.142%" x2="55.517%" y1="76.231%" y2="0%">
            <stop offset="0%" stop-color="#008FFC"/>
            <stop offset="100%" stop-color="#1ADBC9"/>
        </linearGradient>
    </defs>
    <g fill="none" fill-rule="evenodd">
        <path fill="url(#a)" d="M0 0h375v204H0z" transform="translate(-253 -98)"/>
        <g filter="url(#b)" transform="translate(-237)">
            <mask id="e" fill="#fff">
                <use xlink:href="#c"/>
            </mask>
            <use fill="#FFF" xlink:href="#c"/>
            <path fill="url(#d)" fill-rule="nonzero" d="M359.265 67.432a10.662 10.662 0 0 0-7.513-3.054c-1.784 0-3.49.43-5.013 1.23l-11.315-10.82a14.676 14.676 0 0 0-10.176-4.069h-.918a50.597 50.597 0 0 0 1.016-10.097c0-17.95-9.662-34.772-25.345-44.355l5.15-19.109a2.505 2.505 0 0 0-2.423-3.157h-28.62a2.5 2.5 0 0 0-1.985.983 2.5 2.5 0 0 0-.43 2.174s5.163 19.115 5.17 19.122c.039.15-8.458 6.42-9.226 7.168a53.502 53.502 0 0 0-8.529 10.775c-5.026 8.353-7.832 18.08-7.545 27.845-4.193-1.127-8.867-.143-12.272 3.047a7.249 7.249 0 0 0-2.233 5.208c0 1.823.683 3.561 1.933 4.902l17.52 18.679c.072.071.15.13.235.214.443.437.924.814 1.42 1.153l12.401 10.032c4.343 3.523 9.838 5.463 15.463 5.463h22.278a16.26 16.26 0 0 1 9.74 3.216l.572.43a10.721 10.721 0 0 0-1.087 4.83 10.684 10.684 0 0 0 3.216 7.565l14.467 14.16a10.73 10.73 0 0 0 7.506 3.034c2.923 0 5.651-1.146 7.676-3.222l23.49-23.997c4.14-4.232 4.069-11.048-.163-15.195l-14.46-14.155zM299.467-21L295.17-5.056h-13.49L277.37-21h22.097zm-42.955 61.615c0-16.602 9.18-32.122 23.978-40.67h15.899c14.785 8.568 23.951 24.082 23.951 40.67a45.35 45.35 0 0 1-1.152 10.098h-7.136c-3.02 0-6.035.963-8.49 2.701l-3.97 2.8-19.252-.007a9.321 9.321 0 0 0-6.953 3.112l-5.534-3.593-.04-.02c-.012-.006-.019-.02-.032-.026l-1.823-1.1-8.353-8.913c-.28-.3-.58-.58-.879-.846a44.796 44.796 0 0 1-.214-4.206zm51.796 45.137h-22.285c-4.485 0-8.86-1.543-12.317-4.35l-12.136-9.817c-.065-.059-.136-.11-.208-.17l-1.348-1.093L242.638 51.8a2.16 2.16 0 0 1-.586-1.49c0-.6.247-1.166.67-1.576 2.813-2.63 7.045-2.82 10.065-.664.007 0 .007.006.007.006.417.3.807.632 1.172 1.016l8.594 9.173c.02.02.039.026.058.04.143.142.3.28.482.39l2.064 1.243 5.99 3.887a9.146 9.146 0 0 0-.17 1.758c0 5.17 4.206 9.368 9.369 9.368h23.015a2.5 2.5 0 0 0 0-5h-23.015a4.373 4.373 0 0 1-4.369-4.368 4.373 4.373 0 0 1 4.369-4.369l20.038.007h.02c.123 0 .247-.02.37-.04.04-.006.085-.006.118-.012.097-.02.189-.059.28-.091.065-.02.13-.033.189-.059a1.31 1.31 0 0 0 .162-.091c.091-.046.19-.098.274-.156.006-.007.013-.007.02-.013l4.622-3.262a9.735 9.735 0 0 1 5.599-1.784h13.19c2.52 0 4.909.957 6.725 2.689l10.899 10.423L321.7 90.453l-.67-.5a21.252 21.252 0 0 0-12.722-4.2v-.001zm62.012 7.532l-23.49 24.003a5.712 5.712 0 0 1-4.108 1.713 5.717 5.717 0 0 1-4.017-1.628l-14.466-14.16a5.736 5.736 0 0 1-1.719-4.043 5.693 5.693 0 0 1 1.628-4.082l23.49-23.997a5.686 5.686 0 0 1 4.108-1.712c1.517 0 2.942.58 4.017 1.628l14.466 14.153c2.266 2.22 2.305 5.866.091 8.125zm-81.94-58.679l.28-.007c1.08 0 2.11.521 2.747 1.394.632.866.808 1.96.482 3.001-.352 1.107-1.302 1.992-2.428 2.253-.254.058-.521.09-.775.09a3.4 3.4 0 0 1-3.242-2.323 2.504 2.504 0 0 0-2.39-1.693c-.82 0-1.601.397-2.09 1.068-.475.65-.982 1.458-.742 2.207.84 2.597 3.444 4.622 5.111 5.442v2.552c0 1.4 1.934 2.54 3.333 2.54 1.4 0 3.334-1.14 3.334-2.54v-2.552c1.666-.755 3.92-2.532 4.876-4.785 1.087-2.558.638-5.716-.892-8.411-1.27-2.246-4.043-3.841-7.077-3.841h-.247c-1.133 0-2.194-.32-2.832-1.283-.632-.964-.73-2.005-.273-3.086.423-.983 1.328-1.667 2.37-1.881.234-.046.468-.04.709-.04 1.478 0 2.78.944 3.242 2.331.332 1.016 1.296 1.706 2.39 1.706.826 0 1.608-.397 2.09-1.068.468-.657 1.008-1.458.755-2.207-.847-2.545-3.444-4.596-5.111-5.39V15.49c0-1.4-1.934-2.539-3.333-2.539-1.4 0-3.334 1.14-3.334 2.54v2.59c-1.666.736-3.978 2.552-4.915 4.877-1.087 2.682-.554 5.65 1.159 8.36 1.321 2.089 3.92 3.287 6.803 3.287z" mask="url(#e)"/>
        </g>
    </g>
</svg>
