<svg xmlns="http://www.w3.org/2000/svg" xmlns:xlink="http://www.w3.org/1999/xlink" width="24" height="24" viewBox="0 0 24 24">
    <defs>
        <path id="a" d="M21.138 2.865A2.903 2.903 0 0 0 19.056 2c-.783 0-1.54.298-2.081.865l-2.542 2.54-8.517-1.73c-.081-.027-.189-.027-.27-.027-.352 0-.704.135-.946.405L3.483 5.27c-.298.297-.46.73-.378 1.162.081.433.351.81.73 1l5.731 2.891-2 2-2.704-.46c-.081 0-.163-.027-.216-.027-.352 0-.704.135-.947.406l-1.298 1.297c-.324.324-.46.757-.378 1.189.081.433.352.81.757 1l3.813 1.784 1.866 3.73c.189.378.568.676 1 .73.081 0 .135.027.216.027.352 0 .704-.135.947-.405l1.216-1.217c.298-.297.46-.757.378-1.188l-.459-2.703 2-2 2.893 5.73c.19.378.569.648 1 .73.082 0 .136.027.217.027.352 0 .703-.135.946-.406l1.217-1.216c.324-.324.46-.783.378-1.216l-1.73-8.514 2.541-2.54c1.054-1.189 1.054-3.08-.081-4.217zm-.974 3.216l-3.028 3.055 1.893 9.216-1.217 1.217-3.758-7.38L10.241 16l.569 3.379-1.217 1.216-2.055-4.162-4.245-2 1.298-1.297 3.38.568 3.813-3.811L4.4 6.189l1.216-1.216 9.221 1.892 3.056-3.054c.324-.324.73-.46 1.135-.46.406 0 .811.163 1.136.46.622.622.622 1.649 0 2.27z"/>
    </defs>
    <g fill="none" fill-rule="evenodd">
        <path d="M0 0h24v24H0z"/>
        <mask id="b" fill="#fff">
            <use xlink:href="#a"/>
        </mask>
        <use fill="#000" fill-rule="nonzero" xlink:href="#a"/>
        <g fill="#268BE2" mask="url(#b)">
            <path d="M0 0h24v24H0z"/>
        </g>
    </g>
</svg>
