<svg xmlns="http://www.w3.org/2000/svg" xmlns:xlink="http://www.w3.org/1999/xlink" width="31" height="17" viewBox="0 0 31 17">
    <defs>
        <rect id="a" width="343" height="100" rx="8"/>
        <filter id="b" width="108.7%" height="130%" x="-4.4%" y="-11%" filterUnits="objectBoundingBox">
            <feOffset dy="3" in="SourceAlpha" result="shadowOffsetOuter1"/>
            <feGaussianBlur in="shadowOffsetOuter1" result="shadowBlurOuter1" stdDeviation="3.5"/>
            <feColorMatrix in="shadowBlurOuter1" result="shadowMatrixOuter1" values="0 0 0 0 0 0 0 0 0 0 0 0 0 0 0 0 0 0 0.2 0"/>
            <feOffset dy="1" in="SourceAlpha" result="shadowOffsetOuter2"/>
            <feGaussianBlur in="shadowOffsetOuter2" result="shadowBlurOuter2" stdDeviation="1.5"/>
            <feColorMatrix in="shadowBlurOuter2" result="shadowMatrixOuter2" values="0 0 0 0 0 0 0 0 0 0 0 0 0 0 0 0 0 0 0.226987092 0"/>
            <feMerge>
                <feMergeNode in="shadowMatrixOuter1"/>
                <feMergeNode in="shadowMatrixOuter2"/>
            </feMerge>
        </filter>
        <path id="d" d="M16.417 12.86c.264.27.693.235.924-.035l1.649-1.751c.198-.203.23-.471.131-.741a.604.604 0 0 0-.594-.404H15.56c-.065 0-.165 0-.23.034l-4.617 1.752a.69.69 0 0 0-.396.876c.1.27.364.438.626.438.066 0 .165 0 .231-.034l4.518-1.719h1.319l-.594.607a.702.702 0 0 0 .001.976zm-3.496 3.806h.33c.363 0 .66-.302.66-.673a.668.668 0 0 0-.66-.674h-.33a.668.668 0 0 0-.66.674c0 .37.297.673.66.673zm2.308 0h.33c.363 0 .66-.302.66-.673a.668.668 0 0 0-.66-.674h-.33a.668.668 0 0 0-.66.674c0 .37.297.673.66.673zm2.309 0h.33c.363 0 .66-.302.66-.673a.668.668 0 0 0-.66-.674h-.33a.668.668 0 0 0-.66.674c0 .37.297.673.66.673zm-6.926 0h.33c.364 0 .66-.302.66-.673a.668.668 0 0 0-.66-.674h-.33a.668.668 0 0 0-.66.674c0 .37.297.673.66.673zm-4.616 0h.33c.363 0 .659-.302.659-.673a.668.668 0 0 0-.66-.674h-.33a.668.668 0 0 0-.66.674c0 .37.297.673.66.673zm2.308 0h.33c.363 0 .66-.302.66-.673a.668.668 0 0 0-.66-.674h-.33a.668.668 0 0 0-.66.674c0 .37.297.673.66.673zm4.947 5.727c.363 0 .66-.302.66-.673a.668.668 0 0 0-.66-.674h-.99a.668.668 0 0 0-.66.674c0 .37.297.673.66.673h.99zm-8.575-2.358H11.965l6.96 2.998a.603.603 0 0 0 .263.067h2.968c.297 0 .528-.203.626-.471.1-.27 0-.573-.23-.74L19.913 20c1.385-.168 3.233-.572 4.782-1.65 0 0 .034 0 .034-.034a13.802 13.802 0 0 0 1.748-1.618l4.252.002c.364 0 .66-.303.66-.674a.668.668 0 0 0-.66-.674H27.63c.264-.37.429-.572.429-.606l2.869-4.043a.767.767 0 0 0 .066-.708c-.1-.235-.33-.371-.594-.371H28.09c-.165 0-.296.067-.429.168l-4.088 3.505H4.677c-1.814 0-3.232 1.516-3.232 3.435 0 1.887 1.384 3.302 3.232 3.302zM2.763 16.6c.1.033.165.068.264.068h.33c.364 0 .66-.303.66-.674a.668.668 0 0 0-.66-.674h-.099c.33-.404.858-.674 1.418-.674h19.128c.165 0 .296-.067.429-.168l4.088-3.537h.791l-2.11 2.997s-.429.607-1.088 1.382h-3.76a.668.668 0 0 0-.659.674c0 .37.297.674.66.674h2.44c-.199.168-.396.336-.626.505-2.11 1.414-4.881 1.516-5.772 1.516l-1.418-1.01a.636.636 0 0 0-.56-.338H13.58a.668.668 0 0 0-.66.674c0 .371.296.674.66.674h2.308l1.385 1.01c.099.169.264.27.429.337l2.342 1.685h-.759L9.228 17.407a.666.666 0 0 0-.858.371.69.69 0 0 0 .363.877l.131.067H4.676c-1.088 0-1.913-.808-1.913-1.954v-.169z"/>
    </defs>
    <g fill="none" fill-rule="evenodd" transform="translate(-18 -24)">
        <mask id="c" fill="#fff">
            <use xlink:href="#a"/>
        </mask>
        <use fill="#000" filter="url(#b)" xlink:href="#a"/>
        <use fill="#FFF" xlink:href="#a"/>
        <g mask="url(#c)">
            <g transform="translate(16 16)">
                <path d="M0 0h33v33H0z"/>
                <mask id="e" fill="#fff">
                    <use xlink:href="#d"/>
                </mask>
                <g fill="#268BE2" mask="url(#e)">
                    <path d="M0 0h33v33H0z"/>
                </g>
            </g>
        </g>
    </g>
</svg>
