<svg xmlns="http://www.w3.org/2000/svg" xmlns:xlink="http://www.w3.org/1999/xlink" width="24" height="24" viewBox="0 0 24 24">
    <defs>
        <path id="a" d="M12 22C6.496 22 2 17.53 2 12S6.496 2 12 2s10 4.496 10 10-4.496 10-10 10zm0-18.966c-4.936 0-8.966 4.031-8.966 8.966 0 4.936 4.03 8.966 8.966 8.966 4.936 0 8.966-4.03 8.966-8.966 0-4.936-4.03-8.966-8.966-8.966zM5.72 18.977l-.852-.568a8.531 8.531 0 0 1 14.212-.076l-.853.567a7.501 7.501 0 0 0-6.228-3.307 7.503 7.503 0 0 0-6.279 3.384zM12 13.782A4.267 4.267 0 0 1 7.736 9.52 4.268 4.268 0 0 1 12 5.255a4.267 4.267 0 0 1 4.264 4.264A4.267 4.267 0 0 1 12 13.782zm0-7.493a3.231 3.231 0 1 0 3.23 3.23A3.232 3.232 0 0 0 12 6.289z"/>
    </defs>
    <g fill="none" fill-rule="evenodd">
        <path d="M0 0h24v24H0z"/>
        <mask id="b" fill="#fff">
            <use xlink:href="#a"/>
        </mask>
        <use fill="#000" fill-rule="nonzero" xlink:href="#a"/>
        <g fill="#268BE2" mask="url(#b)">
            <path d="M0 0h24v24H0z"/>
        </g>
    </g>
</svg>
