<?xml version="1.0" standalone="no"?>
<!DOCTYPE svg PUBLIC "-//W3C//DTD SVG 20010904//EN"
 "http://www.w3.org/TR/2001/REC-SVG-20010904/DTD/svg10.dtd">
<svg version="1.0" xmlns="http://www.w3.org/2000/svg"
 width="1024.000000pt" height="1024.000000pt" viewBox="0 0 1024.000000 1024.000000"
 preserveAspectRatio="xMidYMid meet">
<metadata>
Created by potrace 1.11, written by Peter Selinger 2001-2013
</metadata>
<g transform="translate(0.000000,1024.000000) scale(0.100000,-0.100000)"
fill="#000000" stroke="none">
<path d="M2175 10230 c-104 -11 -180 -20 -201 -24 -11 -2 -39 -7 -64 -11 -68
-11 -69 -11 -182 -39 -110 -26 -300 -88 -347 -112 -14 -8 -30 -14 -35 -14 -12
0 -206 -99 -275 -139 -237 -140 -478 -365 -637 -591 -165 -236 -315 -585 -368
-860 -3 -14 -7 -34 -9 -45 -3 -11 -8 -40 -12 -65 -4 -25 -9 -52 -10 -61 -2 -8
-6 -40 -9 -70 -4 -30 -10 -88 -15 -129 -10 -85 -8 -5885 2 -5940 3 -19 9 -55
12 -80 2 -25 7 -54 9 -65 2 -11 7 -42 11 -70 18 -130 75 -337 131 -485 240
-625 711 -1074 1352 -1289 86 -29 216 -64 272 -74 14 -3 36 -8 50 -11 29 -7
65 -13 129 -22 25 -3 57 -8 71 -10 97 -17 498 -19 3070 -19 2532 0 2989 3
3076 19 10 2 44 7 74 11 45 6 126 22 250 50 218 48 515 176 717 308 213 139
333 254 555 525 32 40 137 218 183 311 71 143 138 323 170 451 42 172 61 271
71 379 4 31 10 88 14 126 11 94 10 5766 0 5877 -11 107 -19 177 -24 203 -2 11
-7 38 -11 60 -4 22 -9 51 -11 65 -3 14 -14 63 -25 110 -12 47 -22 92 -24 100
-3 16 -42 136 -52 160 -3 8 -7 20 -9 25 -1 6 -10 28 -19 50 -82 196 -159 337
-265 485 -68 95 -82 111 -189 225 -336 358 -843 600 -1401 670 -25 3 -65 9
-90 12 -63 10 -5850 12 -5935 3z"/>
</g>
</svg>
