<?xml version="1.0" standalone="no"?>
<!DOCTYPE svg PUBLIC "-//W3C//DTD SVG 20010904//EN"
 "http://www.w3.org/TR/2001/REC-SVG-20010904/DTD/svg10.dtd">
<svg version="1.0" xmlns="http://www.w3.org/2000/svg"
 width="1024.000000pt" height="1024.000000pt" viewBox="0 0 1024.000000 1024.000000"
 preserveAspectRatio="xMidYMid meet">
<metadata>
Created by potrace 1.11, written by Peter Selinger 2001-2013
</metadata>
<g transform="translate(0.000000,1024.000000) scale(0.100000,-0.100000)"
fill="#000000" stroke="none">
<path d="M5950 9234 c-143 -14 -333 -61 -638 -158 -112 -36 -237 -72 -279 -82
-93 -20 -172 -18 -683 25 -816 68 -1010 66 -1336 -18 -297 -76 -610 -233 -837
-419 -108 -89 -257 -244 -343 -357 -349 -457 -545 -1119 -495 -1665 26 -277
90 -515 257 -946 51 -133 111 -306 134 -384 72 -249 133 -379 282 -607 131
-199 155 -254 168 -387 26 -258 94 -441 213 -573 l36 -39 -53 -85 c-29 -46
-117 -201 -195 -343 -259 -470 -386 -656 -539 -786 -154 -131 -275 -259 -306
-325 -38 -78 -46 -180 -21 -257 42 -132 165 -271 380 -433 435 -328 880 -471
1870 -605 127 -17 361 -51 520 -75 357 -54 533 -72 831 -85 764 -33 1587 85
2594 374 498 142 997 428 1090 623 37 77 33 143 -13 227 -64 116 -144 213
-312 381 -194 195 -331 310 -447 376 -83 48 -88 52 -88 84 0 50 -31 68 -171
99 -87 19 -131 34 -148 49 -13 12 -64 75 -113 139 -106 139 -185 215 -231 222
-18 3 -86 8 -153 11 -118 5 -240 22 -324 45 -33 9 -40 15 -35 29 24 77 58 233
67 313 18 148 3 223 -72 373 -44 89 -64 145 -79 215 -16 77 -56 344 -75 495
-6 52 14 160 49 262 107 313 322 846 558 1383 71 162 136 311 144 332 l15 36
93 -5 c111 -7 223 8 358 48 143 43 173 47 404 58 335 17 643 -9 793 -66 36
-14 83 -32 105 -40 55 -21 157 -18 236 6 212 67 399 293 399 484 0 76 -10 93
-134 236 -139 159 -248 300 -351 456 -95 142 -272 348 -378 440 l-55 47 -4 96
c-4 104 -20 149 -78 222 -62 78 -213 138 -315 125 -57 -7 -142 -43 -194 -82
l-34 -27 -36 23 c-85 52 -242 122 -315 141 -70 18 -112 20 -377 20 l-298 0
-156 66 c-86 37 -242 109 -346 160 -105 52 -216 100 -247 108 -61 16 -218 27
-292 20z m275 -177 c22 -8 123 -55 225 -105 102 -50 250 -119 330 -153 l145
-64 335 -6 c371 -6 379 -8 520 -78 41 -21 110 -61 154 -89 43 -29 87 -52 98
-52 11 0 43 22 71 49 69 64 121 91 177 91 57 0 142 -40 170 -80 28 -39 39
-108 28 -175 -5 -34 -5 -63 1 -74 5 -9 79 -87 164 -172 156 -157 241 -257 311
-370 64 -102 207 -288 335 -438 137 -159 139 -162 91 -258 -60 -119 -207 -234
-320 -249 -37 -5 -62 0 -139 31 -197 77 -405 100 -804 92 -309 -7 -361 -13
-530 -64 -114 -34 -130 -36 -257 -37 -74 0 -218 4 -320 9 -238 10 -330 2 -370
-32 -35 -29 -39 -69 -12 -104 22 -26 23 -26 228 -14 85 5 143 4 147 -1 3 -5
-19 -66 -50 -134 -126 -286 -355 -827 -416 -985 -244 -625 -258 -666 -278
-795 -13 -86 -11 -108 31 -395 39 -271 59 -346 124 -480 68 -137 68 -138 67
-244 0 -91 -7 -133 -44 -269 -21 -80 -23 -83 -47 -77 -40 10 -130 65 -158 96
-14 16 -31 29 -37 29 -7 0 -20 9 -30 20 -16 18 -17 26 -6 73 21 95 30 254 21
382 -10 142 -28 228 -70 331 -48 121 -63 210 -63 384 1 345 83 628 338 1170
102 218 149 348 140 391 -13 57 -84 78 -122 37 -12 -13 -33 -58 -47 -101 -15
-43 -65 -160 -112 -260 -271 -573 -364 -915 -351 -1292 6 -171 20 -244 85
-425 39 -108 57 -257 49 -410 -6 -120 -34 -251 -63 -294 -35 -55 -248 -84
-374 -52 -191 49 -371 233 -455 466 -36 100 -41 218 -26 548 15 304 11 336
-71 500 l-51 103 -8 152 c-15 259 -60 556 -98 641 -34 76 -146 165 -325 260
-119 63 -139 47 -191 -154 -21 -80 -46 -174 -56 -210 -22 -82 -24 -233 -4
-378 8 -59 24 -174 35 -257 12 -82 25 -166 30 -185 6 -19 48 -87 94 -150 99
-135 102 -131 -77 -105 -148 22 -288 55 -482 115 -221 68 -276 80 -381 80
l-91 0 -12 78 c-38 241 -126 642 -187 854 -19 67 -33 122 -32 124 11 10 158
58 257 83 118 30 265 49 405 54 62 2 71 5 89 29 23 30 18 67 -13 98 -41 41
-322 22 -544 -36 -149 -39 -365 -123 -381 -148 -30 -45 -76 -369 -91 -637 -7
-111 -6 -121 13 -142 14 -15 32 -73 58 -187 53 -240 80 -328 140 -470 101
-241 141 -406 132 -550 -11 -194 -87 -286 -272 -335 -67 -17 -218 -20 -283 -5
-122 28 -225 116 -285 240 -45 94 -62 163 -87 338 -29 209 -50 259 -205 496
-126 192 -192 332 -249 529 -45 154 -67 216 -200 566 -153 399 -204 667 -193
995 3 96 14 212 27 286 65 371 231 759 448 1045 61 80 220 243 307 315 275
226 635 380 1015 436 168 24 500 14 1030 -31 234 -20 484 -37 555 -38 153 -1
188 6 527 113 385 120 486 141 663 136 73 -2 136 -10 160 -19z m-1548 -3231
c53 -41 64 -58 82 -131 18 -71 50 -326 61 -485 14 -205 22 -236 82 -360 43
-87 52 -117 56 -172 l4 -68 -90 0 -89 0 -45 48 c-24 26 -83 99 -131 163 l-87
115 -19 130 c-46 301 -64 458 -57 523 4 52 54 246 81 319 6 16 70 -18 152 -82z
m-1508 -433 c43 -192 111 -559 111 -602 0 -19 -9 -32 -29 -44 l-28 -17 -22 83
c-25 96 -111 459 -118 500 -6 31 15 276 25 291 8 14 17 -16 61 -211z"/>
<path d="M8407 7932 c-25 -27 -21 -43 24 -105 42 -60 87 -91 114 -81 22 9 45
57 45 94 0 40 -43 84 -96 99 -54 15 -68 14 -87 -7z"/>
</g>
</svg>
